<svg width="20" height="20" viewBox="0 0 20 20" fill="none" xmlns="http://www.w3.org/2000/svg">
<path d="M17.0711 2.92893C16.1425 2.00035 15.0401 1.26375 13.8269 0.761205C12.6136 0.258658 11.3133 -1.30413e-08 10 0C8.68681 1.30413e-08 7.38644 0.258658 6.17318 0.761205C4.95992 1.26375 3.85753 2.00035 2.92894 2.92893C2.00035 3.85752 1.26376 4.95991 0.761207 6.17317C0.258658 7.38642 -7.04442e-08 8.68678 0 10C7.04442e-08 11.3132 0.258659 12.6136 0.761207 13.8268C1.26376 15.0401 2.00035 16.1425 2.92894 17.0711L17.0711 2.92893Z" fill="#868A8E"/>
<path d="M2.92871 17.0718C3.8573 18.0004 4.95969 18.737 6.17295 19.2396C7.38621 19.7421 8.68658 20.0008 9.9998 20.0008C11.313 20.0008 12.6134 19.7421 13.8266 19.2396C15.0399 18.737 16.1423 18.0004 17.0709 17.0718C17.9995 16.1432 18.7361 15.0408 19.2386 13.8276C19.7412 12.6143 19.9998 11.314 19.9998 10.0008C19.9998 8.68754 19.7412 7.38718 19.2386 6.17392C18.7361 4.96067 17.9995 3.85827 17.0709 2.92969L2.92871 17.0718Z" fill="#C3C7CB"/>
<path d="M15.8739 4.17966C15.1061 3.41184 14.1945 2.80277 13.1913 2.38723C12.1881 1.97169 11.1129 1.75781 10.027 1.75781C8.94115 1.75781 7.86592 1.97169 6.86272 2.38723C5.85951 2.80277 4.94797 3.41184 4.18015 4.17966C3.41233 4.94748 2.80326 5.85901 2.38772 6.86222C1.97218 7.86542 1.7583 8.94065 1.7583 10.0265C1.7583 11.1124 1.97218 12.1876 2.38772 13.1908C2.80326 14.194 3.41233 15.1055 4.18015 15.8734L15.8739 4.17966Z" fill="black"/>
<path d="M4.18018 15.8734C4.948 16.6412 5.85953 17.2503 6.86274 17.6658C7.86594 18.0813 8.94117 18.2952 10.027 18.2952C11.1129 18.2952 12.1881 18.0813 13.1913 17.6658C14.1945 17.2503 15.1061 16.6412 15.8739 15.8734C16.6417 15.1056 17.2508 14.194 17.6663 13.1908C18.0819 12.1876 18.2957 11.1124 18.2957 10.0265C18.2957 8.94067 18.0819 7.86545 17.6663 6.86224C17.2508 5.85904 16.6417 4.94751 15.8739 4.17969L4.18018 15.8734Z" fill="#C3C7CB"/>
<ellipse cx="10.0002" cy="10.0007" rx="6.66669" ry="6.66667" fill="#C3C7CB"/>
</svg>
